<?xml version="1.0" encoding="UTF-8"?>
<svg xmlns="http://www.w3.org/2000/svg" xmlns:xlink="http://www.w3.org/1999/xlink" width="100px" height="100px" viewBox="0 0 100 44" version="1.1">
<g id="surface1">
<path style=" stroke:none;fill-rule:nonzero;fill:rgb(14.117647%,32.54902%,100%);fill-opacity:1;" d="M 94.421875 9.667969 L 93.390625 3.5625 C 93.0625 1.597656 92.28125 0 91.703125 0 C 91.085938 0 90.59375 1.640625 90.59375 3.605469 L 90.59375 5.203125 C 90.59375 7.167969 88.945312 8.808594 86.96875 8.808594 L 85.363281 8.808594 C 85.238281 8.808594 85.117188 8.808594 85.035156 8.808594 L 85.035156 13.191406 C 85.15625 13.191406 85.28125 13.191406 85.363281 13.191406 L 91.414062 13.191406 C 93.390625 13.191406 94.75 11.59375 94.421875 9.667969 "/>
<path style=" stroke:none;fill-rule:nonzero;fill:rgb(14.117647%,32.54902%,100%);fill-opacity:1;" d="M 79.96875 4.507812 L 70.214844 4.507812 C 70.132812 4.507812 70.050781 4.507812 69.964844 4.507812 L 59.921875 4.507812 C 59.796875 4.507812 59.675781 4.507812 59.59375 4.546875 L 59.59375 3.605469 C 59.59375 1.640625 59.097656 0 58.480469 0 C 57.863281 0 57.121094 1.597656 56.792969 3.5625 L 55.761719 9.667969 C 55.433594 11.636719 56.792969 13.234375 58.808594 13.234375 L 64.820312 13.234375 C 65.4375 13.234375 66.015625 13.152344 66.550781 12.988281 C 66.34375 14.011719 65.480469 14.789062 64.367188 14.789062 L 55.929688 14.789062 C 54.570312 14.789062 53.539062 13.558594 53.746094 12.207031 L 54.609375 7.085938 C 54.816406 5.734375 53.789062 4.507812 52.429688 4.507812 L 10.355469 4.507812 C 9.449219 4.507812 8.707031 5.039062 8.335938 5.816406 L 0.433594 17.820312 C 0.308594 18.027344 0.308594 18.273438 0.472656 18.476562 L 1.996094 20.28125 C 2.203125 20.523438 2.53125 20.523438 2.78125 20.359375 L 8.171875 16.140625 L 8.171875 41.789062 C 8.171875 43.015625 9.160156 44 10.394531 44 L 22.335938 44 C 23.570312 44 24.558594 43.015625 24.558594 41.789062 L 24.558594 32.855469 C 24.558594 31.628906 25.546875 30.644531 26.78125 30.644531 L 56.585938 30.644531 C 57.820312 30.644531 58.808594 31.628906 58.808594 32.855469 L 58.808594 41.789062 C 58.808594 43.015625 59.796875 44 61.03125 44 L 72.972656 44 C 74.207031 44 75.195312 43.015625 75.195312 41.789062 L 75.195312 32.199219 L 68.855469 32.199219 C 66.878906 32.199219 65.230469 30.5625 65.230469 28.597656 L 65.230469 22.410156 C 65.230469 21.222656 65.808594 20.199219 66.671875 19.542969 L 66.671875 26.917969 C 66.671875 28.882812 68.320312 30.519531 70.296875 30.519531 L 80.054688 30.519531 C 82.027344 30.519531 83.675781 28.882812 83.675781 26.917969 L 83.675781 8.152344 C 83.59375 6.105469 81.988281 4.507812 79.96875 4.507812 "/>
<path style=" stroke:none;fill-rule:nonzero;fill:rgb(14.117647%,32.54902%,100%);fill-opacity:1;" d="M 95.078125 2.292969 C 95.078125 0.695312 96.273438 0 97.386719 0 C 98.496094 0 99.691406 0.695312 99.691406 2.292969 C 99.691406 3.851562 98.496094 4.546875 97.386719 4.546875 C 96.273438 4.546875 95.078125 3.851562 95.078125 2.292969 Z M 99.15625 2.292969 C 99.15625 1.023438 98.332031 0.492188 97.425781 0.492188 C 96.519531 0.492188 95.65625 1.023438 95.65625 2.292969 C 95.65625 3.523438 96.519531 4.097656 97.425781 4.097656 C 98.332031 4.054688 99.15625 3.523438 99.15625 2.292969 Z M 96.644531 1.148438 L 97.46875 1.148438 C 97.878906 1.148438 98.289062 1.269531 98.289062 1.84375 C 98.289062 2.171875 98.042969 2.375 97.753906 2.457031 L 98.289062 3.398438 L 97.796875 3.398438 L 97.300781 2.5 L 97.097656 2.5 L 97.097656 3.398438 L 96.644531 3.398438 Z M 97.46875 2.171875 C 97.671875 2.171875 97.835938 2.046875 97.835938 1.84375 C 97.835938 1.597656 97.632812 1.558594 97.46875 1.558594 L 97.054688 1.558594 L 97.054688 2.171875 Z M 97.46875 2.171875 "/>
</g>
</svg>
